<mxfile host="app.diagrams.net" modified="2023-03-06T14:15:47.818Z" agent="5.0 (X11; Linux x86_64) AppleWebKit/537.36 (KHTML, like Gecko) Chrome/110.0.0.0 Safari/537.36" etag="hKH2b3kvZ6bLvGrG1Cnz" version="20.8.20" type="github">
  <diagram name="페이지-1" id="APTisSjFKPNvJ7AKe2pm">
    <mxGraphModel dx="1434" dy="763" grid="1" gridSize="10" guides="1" tooltips="1" connect="1" arrows="1" fold="1" page="1" pageScale="1" pageWidth="827" pageHeight="1169" math="0" shadow="0">
      <root>
        <mxCell id="0" />
        <mxCell id="1" parent="0" />
        <UserObject label="&lt;font style=&quot;font-size: 18px;&quot;&gt;여기가 어디&lt;/font&gt;" link="https://www.youtube.com/watch?v=A3Y6JEo8oU0" linkTarget="_blank" id="wM1JN07KSTOj0-9haGU1-1">
          <mxCell style="whiteSpace=wrap;html=1;aspect=fixed;" parent="1" vertex="1">
            <mxGeometry x="180" y="30" width="140" height="140" as="geometry" />
          </mxCell>
        </UserObject>
        <mxCell id="GWBuZ1FvZQDn5v0GJOg8-1" value="" style="shape=switch;whiteSpace=wrap;html=1;fontSize=18;" vertex="1" parent="1">
          <mxGeometry x="470" y="15" width="170" height="170" as="geometry" />
        </mxCell>
        <mxCell id="GWBuZ1FvZQDn5v0GJOg8-4" value="" style="shape=singleArrow;whiteSpace=wrap;html=1;fontSize=18;" vertex="1" parent="1">
          <mxGeometry x="330" y="70" width="150" height="60" as="geometry" />
        </mxCell>
      </root>
    </mxGraphModel>
  </diagram>
</mxfile>
